<?xml version="1.0" encoding="UTF-8" standalone="no"?>
<!-- Created with Inkscape (http://www.inkscape.org/) -->

<svg
   xmlns:dc="http://purl.org/dc/elements/1.1/"
   xmlns:cc="http://creativecommons.org/ns#"
   xmlns:rdf="http://www.w3.org/1999/02/22-rdf-syntax-ns#"
   xmlns:svg="http://www.w3.org/2000/svg"
   xmlns="http://www.w3.org/2000/svg"
   xmlns:sodipodi="http://sodipodi.sourceforge.net/DTD/sodipodi-0.dtd"
   xmlns:inkscape="http://www.inkscape.org/namespaces/inkscape"
   width="210mm"
   height="297mm"
   viewBox="0 0 744.09448819 1052.3622047"
   id="svg2"
   version="1.1"
   inkscape:version="0.91 r13725"
   sodipodi:docname="holimoli_logo.svg">
  <defs
     id="defs4" />
  <sodipodi:namedview
     id="base"
     pagecolor="#00ff01"
     bordercolor="#666666"
     borderopacity="1.0"
     inkscape:pageopacity="0"
     inkscape:pageshadow="2"
     inkscape:zoom="0.95"
     inkscape:cx="335.226"
     inkscape:cy="535.48151"
     inkscape:document-units="px"
     inkscape:current-layer="layer1"
     showgrid="false"
     showguides="true"
     inkscape:guide-bbox="true"
     inkscape:window-width="2560"
     inkscape:window-height="1377"
     inkscape:window-x="1912"
     inkscape:window-y="-8"
     inkscape:window-maximized="1"
     borderlayer="false"
     showborder="true">
    <sodipodi:guide
       position="0,0"
       orientation="0,744.09449"
       id="guide4623" />
    <sodipodi:guide
       position="744.09449,0"
       orientation="-1052.3622,0"
       id="guide4625" />
    <sodipodi:guide
       position="744.09449,1052.3622"
       orientation="0,-744.09449"
       id="guide4627" />
    <sodipodi:guide
       position="0,1052.3622"
       orientation="1052.3622,0"
       id="guide4629" />
    <sodipodi:guide
       position="360.55046,348.62386"
       orientation="1,0"
       id="guide4801" />
    <sodipodi:guide
       position="530.27523,362.38533"
       orientation="0,1"
       id="guide4803" />
  </sodipodi:namedview>
  <metadata
     id="metadata7">
    <rdf:RDF>
      <cc:Work
         rdf:about="">
        <dc:format>image/svg+xml</dc:format>
        <dc:type
           rdf:resource="http://purl.org/dc/dcmitype/StillImage" />
        <dc:title></dc:title>
      </cc:Work>
    </rdf:RDF>
  </metadata>
  <g
     inkscape:label="Layer 1"
     inkscape:groupmode="layer"
     id="layer1">
    <path
       style="fill:#ffffff;stroke:#ffffff;stroke-opacity:1"
       d="m 359.15083,105.39749 a 66.666,66.666 0 0 0 -66.66602,66.66602 66.666,66.666 0 0 0 28.51758,54.63671 100,100 0 0 0 -1.73633,18.25391 100,100 0 0 0 2.32031,20.84766 66.666,66.666 0 0 0 -29.10156,54.99218 66.666,66.666 0 0 0 66.66602,66.66602 66.666,66.666 0 0 0 62.08789,-42.57617 100,100 0 0 0 98.02734,-99.92969 100,100 0 0 0 -99.28906,-99.97461 66.666,66.666 0 0 0 -60.82617,-39.58203 z m 0,50 a 16.6665,16.6665 0 0 1 16.66601,16.66602 16.6665,16.6665 0 0 1 -16.66601,16.66601 16.6665,16.6665 0 0 1 -16.66602,-16.66601 16.6665,16.6665 0 0 1 16.66602,-16.66602 z m 107.63085,46.83203 a 17.820805,17.820805 0 0 1 17.82032,17.82227 17.820805,17.820805 0 0 1 -17.82032,17.82031 17.820805,17.820805 0 0 1 -17.82031,-17.82031 17.820805,17.820805 0 0 1 17.82031,-17.82227 z M 359.15083,304.12796 a 16.6665,16.6665 0 0 1 16.66601,16.66601 16.6665,16.6665 0 0 1 -16.66601,16.66797 16.6665,16.6665 0 0 1 -16.66602,-16.66797 16.6665,16.6665 0 0 1 16.66602,-16.66601 z"
       id="path4233"
       inkscape:connector-curvature="0" />
    <path
       style="fill:#ffffff;stroke:#ffffff;stroke-width:1.00890481;stroke-linecap:round;stroke-linejoin:round;stroke-miterlimit:4;stroke-dasharray:none;stroke-opacity:1"
       d="m 212.0102,129.06741 c -6.31109,0 -11.39062,5.17646 -11.39062,11.60547 l 0,22.03125 c 0,0.21904 0.0197,0.43246 0.0312,0.64844 -0.0116,0.21533 -0.0312,0.4281 -0.0312,0.64648 l 0,22.03125 0,17.42383 c 0,6.42901 5.07953,11.60547 11.39062,11.60547 6.31109,0 11.39258,-5.17646 11.39258,-11.60547 l 0,-20.91602 c 0.54396,0.0762 1.09604,0.12891 1.66211,0.12891 l 22.03125,0 c 0.84798,0 1.67143,-0.0938 2.4668,-0.26172 l 0,3.625 0,17.42383 c 0,6.42901 5.07953,11.60547 11.39062,11.60547 6.31109,0 11.39258,-5.17646 11.39258,-11.60547 l 0,-22.03125 0,-17.42383 c 0,-0.21838 -0.0197,-0.43115 -0.0312,-0.64648 0.0116,-0.21598 0.0312,-0.4294 0.0312,-0.64844 l 0,-22.03125 c 0,-6.42901 -5.08149,-11.60547 -11.39258,-11.60547 -6.31109,0 -11.39063,5.17646 -11.39062,11.60547 l 0,19.47266 c -0.79539,-0.16796 -1.61881,-0.26368 -2.4668,-0.26368 l -22.03125,0 c -0.56603,0 -1.11819,0.0528 -1.66211,0.12891 l 0,-19.33789 c 0,-6.42901 -5.08149,-11.60547 -11.39258,-11.60547 z"
       id="rect4441-7"
       inkscape:connector-curvature="0" />
    <rect
       style="fill:#000000;stroke:#000000;stroke-width:1.00890481;stroke-linecap:round;stroke-linejoin:round;stroke-miterlimit:4;stroke-dasharray:none;stroke-opacity:1"
       id="rect4441"
       width="22.783703"
       height="45.241089"
       x="455.82083"
       y="242.8306"
       ry="11.604704" />
    <path
       style="fill:#ffffff;stroke:#ffffff;stroke-width:1.00890481;stroke-linecap:round;stroke-linejoin:round;stroke-miterlimit:4;stroke-dasharray:none;stroke-opacity:1"
       d="m 211.84418,278.21585 c -2.93935,-0.0272 -5.8683,1.07143 -8.0996,3.30273 -2.23131,2.23131 -3.32994,5.16043 -3.30274,8.09961 3e-4,0.0319 0.005,0.0638 0.006,0.0957 -3.3e-4,0.0369 -0.006,0.0724 -0.006,0.10937 l 0,16.28711 0,5.74609 0,16.28516 c 0,0.26919 0.0215,0.53235 0.0391,0.79688 -0.0174,0.26386 -0.0391,0.52638 -0.0391,0.79492 l 0,22.03125 c 0,6.429 5.07954,11.60547 11.39063,11.60547 6.31108,0 11.39257,-5.17647 11.39257,-11.60547 l 0,-22.03125 c 0,-0.26854 -0.0216,-0.53107 -0.0391,-0.79492 0.0175,-0.26451 0.0391,-0.52769 0.0391,-0.79688 l 0,-11.15039 4.1875,4.1875 c 2.30984,2.30984 5.31822,3.45675 8.30469,3.44727 3.48216,0.49955 7.17128,-0.60292 9.89258,-3.32422 l 4.06445,-4.06446 0,10.9043 c 0,0.26919 0.0215,0.53235 0.0391,0.79688 -0.0174,0.26386 -0.0391,0.52638 -0.0391,0.79492 l 0,22.03125 c 0,6.429 5.07954,11.60547 11.39063,11.60547 6.31108,0 11.39258,-5.17647 11.39258,-11.60547 l 0,-22.03125 c 0,-0.26854 -0.0216,-0.53107 -0.0391,-0.79492 0.0175,-0.26451 0.0391,-0.52769 0.0391,-0.79688 l 0,-16.28516 0,-5.74609 0,-16.28711 c 0,-0.0238 -0.004,-0.0466 -0.004,-0.0703 0.0615,-2.98317 -1.03048,-5.96603 -3.29492,-8.23047 -2.22538,-2.22537 -5.14487,-3.32388 -8.07617,-3.30274 -0.008,6e-5 -0.0156,-7e-5 -0.0234,0 -0.0208,2e-4 -0.0417,0.004 -0.0625,0.004 -2.32801,0.014 -4.48522,0.73039 -6.2793,1.95508 -0.09,0.0615 -0.17353,0.13132 -0.26172,0.19531 -0.54452,0.38513 -1.06983,0.81007 -1.55859,1.29883 l -15.57813,15.58008 c -0.27263,0.27263 -0.51664,0.56191 -0.75585,0.85351 l -8.61719,-8.61718 c -0.32828,-0.32828 -0.67486,-0.62666 -1.0293,-0.90821 l -6.91016,-6.91211 c -0.6542,-0.6542 -1.36919,-1.20333 -2.11914,-1.67187 -1.45784,-0.93109 -3.13376,-1.54165 -4.9414,-1.71875 -0.0598,-0.006 -0.11987,-0.004 -0.17969,-0.01 -0.30694,-0.0275 -0.61438,-0.0499 -0.92188,-0.0527 z"
       id="rect4441-4-5"
       inkscape:connector-curvature="0" />
    <path
       style="fill:#000000;stroke:#000000;stroke-width:1.00890481;stroke-linecap:round;stroke-linejoin:round;stroke-miterlimit:4;stroke-dasharray:none;stroke-opacity:1"
       d="m 390.46662,202.37932 c -6.31109,0 -11.39258,5.17646 -11.39258,11.60547 l 0,22.03125 c 0,0.0403 0.005,0.079 0.006,0.11914 l 0,17.75781 0,3.50195 0,18.53125 c 0,0.007 -10e-6,0.013 0,0.0195 -5.1e-4,0.0441 -0.006,0.0867 -0.006,0.13086 0,2.15831 0.61604,4.16619 1.66992,5.88282 1.9956,3.34154 5.59244,5.57031 9.72852,5.57031 0.39853,0 0.79195,-0.0203 1.17969,-0.0606 l 16.73632,0 c 0.39555,0.0397 0.79851,0.0606 1.20508,0.0606 l 22.03125,0 c 6.429,0 11.60351,-5.07954 11.60351,-11.39063 0,-6.31108 -5.17451,-11.39257 -11.60351,-11.39257 l -17.71094,0 c -0.39555,-0.0397 -0.79656,-0.0605 -1.20313,-0.0605 l -10.84765,0 0,-7.29102 0,-3.50195 0,-18.53125 c 0,-0.0271 -0.004,-0.0531 -0.004,-0.0801 l 0,-21.29687 c 0,-6.42901 -5.08149,-11.60547 -11.39257,-11.60547 z"
       id="rect4441-2"
       inkscape:connector-curvature="0" />
    <path
       style="fill:#00ff00;fill-rule:evenodd;stroke:#00ff00;stroke-width:0.2;stroke-linecap:round;stroke-linejoin:round;stroke-miterlimit:4;stroke-dasharray:none;stroke-opacity:1"
       d="m 421.35161,144.48669 c -23.85427,52.65396 -60.91949,72.95627 -101.25389,83.77852 l -0.26111,-1.86633 c 43.59737,-11.29909 78.15134,-36.25814 99.89508,-83.17362 z"
       id="path4856"
       inkscape:connector-curvature="0"
       sodipodi:nodetypes="ccccc" />
    <path
       style="fill:#00ff00;fill-rule:evenodd;stroke:#00ff00;stroke-width:0.2;stroke-linecap:round;stroke-linejoin:round;stroke-miterlimit:4;stroke-dasharray:none;stroke-opacity:1"
       d="m 320.35647,264.58904 c 56.42006,12.57945 83.87483,44.70809 102.71871,81.97594 l -1.77346,0.63736 c -19.97808,-40.3643 -51.47746,-69.08224 -101.84866,-80.7696 z"
       id="path4856-4"
       inkscape:connector-curvature="0"
       sodipodi:nodetypes="ccccc" />
    <path
       style="fill:#ffffff;stroke:#ffffff;stroke-opacity:1"
       d="m 177.19084,728.08768 a 66.666,66.666 0 0 0 -66.66601,66.66602 66.666,66.666 0 0 0 27.9082,54.18359 c 43.12916,-11.31333 77.35933,-36.08002 99.02734,-82.36914 A 66.666,66.666 0 0 0 177.19084,728.08768 Z M 30.050228,751.7576 c -6.31109,0 -11.39063,5.17646 -11.39063,11.60547 l 0,22.03125 c 0,0.21904 0.01965,0.43246 0.03125,0.64844 -0.0116,0.21533 -0.03125,0.42811 -0.03125,0.64649 l 0,22.03125 0,17.42382 c 0,6.42901 5.07954,11.60547 11.39063,11.60547 6.31109,0 11.39258,-5.17646 11.39257,-11.60547 l 0,-20.91601 c 0.54396,0.0762 1.09604,0.1289 1.66211,0.1289 l 22.03125,0 c 0.84798,0 1.67143,-0.0938 2.4668,-0.26171 l 0,3.625 0,17.42382 c 0,6.42901 5.07954,11.60547 11.39063,11.60547 6.31109,0 11.392566,-5.17646 11.392566,-11.60547 l 0,-22.03125 0,-17.42382 c 0,-0.21838 -0.0178,-0.43116 -0.0293,-0.64649 0.0116,-0.21598 0.0293,-0.4294 0.0293,-0.64844 l 0,-22.03125 c 0,-6.42901 -5.081476,-11.60545 -11.392566,-11.60547 -6.31109,0 -11.39064,5.17646 -11.39063,11.60547 l 0,19.47266 c -0.79539,-0.16796 -1.61881,-0.26367 -2.4668,-0.26367 l -22.03125,0 c -0.56603,0 -1.11818,0.0528 -1.66211,0.1289 l 0,-19.33789 c 0,-6.42901 -5.08148,-11.60545 -11.39257,-11.60547 z M 239.14006,767.71268 C 215.4195,819.64964 178.77123,839.92482 138.8549,850.7576 a 100,100 0 0 0 -1.54882,16.88672 100,100 0 0 0 2.11132,19.87696 c 54.84349,12.53868 82.09674,43.69244 100.79883,79.98632 a 100,100 0 0 0 97.08985,-99.86328 100,100 0 0 0 -98.16602,-99.93164 z m -61.94922,10.375 a 16.6665,16.6665 0 0 1 16.66602,16.66602 16.6665,16.6665 0 0 1 -16.66602,16.66601 16.6665,16.6665 0 0 1 -16.66601,-16.66601 16.6665,16.6665 0 0 1 16.66601,-16.66602 z m 107.63086,46.83203 a 17.820805,17.820805 0 0 1 17.82031,17.82227 17.820805,17.820805 0 0 1 -17.82031,17.82031 17.820805,17.820805 0 0 1 -17.82031,-17.82031 17.820805,17.820805 0 0 1 17.82031,-17.82227 z m -76.31445,0.14844 c 6.31108,0 11.39258,5.17646 11.39258,11.60547 l 0,21.29688 c 0,0.027 0.004,0.053 0.004,0.0801 l 0,18.53125 0,3.50196 0,7.29101 10.84766,0 c 0.40657,0 0.80757,0.0208 1.20312,0.0606 l 17.71094,0 c 6.429,0 11.60352,5.0815 11.60352,11.39258 0,6.31109 -5.17452,11.39062 -11.60352,11.39062 l -22.03125,0 c -0.40657,0 -0.80953,-0.0208 -1.20508,-0.0605 l -16.73633,0 c -0.38773,0.0403 -0.78115,0.0605 -1.17968,0.0605 -4.13608,0 -7.73292,-2.22877 -9.72852,-5.57031 -1.05388,-1.71663 -1.66992,-3.7245 -1.66992,-5.88281 0,-0.0442 0.005,-0.0868 0.006,-0.13086 l 0,-0.0195 0,-18.53125 0,-3.50196 0,-17.75781 c -0.001,-0.0401 -0.006,-0.0788 -0.006,-0.11914 l 0,-22.03125 c 0,-6.42901 5.08149,-11.60547 11.39258,-11.60547 z m 76.74609,40.45117 c 6.31109,0 11.39258,5.17647 11.39258,11.60547 l 0,22.03125 c 0,6.42901 -5.08149,11.60547 -11.39258,11.60547 -6.31108,0 -11.39062,-5.17646 -11.39062,-11.60547 l 0,-22.03125 c 0,-6.429 5.07954,-11.60547 11.39062,-11.60547 z M 138.476,889.36307 a 66.666,66.666 0 0 0 -27.95117,54.1211 66.666,66.666 0 0 0 66.66601,66.66603 66.666,66.666 0 0 0 61.56641,-41.40822 C 218.88406,929.25036 187.78911,901.08165 138.476,889.36307 Z M 29.884208,900.90604 c -2.93935,-0.0272 -5.86831,1.07144 -8.09961,3.30274 -2.23131,2.23131 -3.32993,5.16043 -3.30273,8.09961 3e-4,0.0319 0.0068,0.0638 0.0078,0.0957 -3.3e-4,0.0369 -0.0078,0.0724 -0.0078,0.10937 l 0,16.28711 0,5.7461 0,16.28515 c 0,0.26919 0.02341,0.53235 0.04101,0.79688 -0.0174,0.26386 -0.04101,0.52638 -0.04101,0.79492 l 0,22.03128 c 0,6.429 5.07953,11.6054 11.39062,11.6054 6.31108,0 11.39258,-5.1764 11.39258,-11.6054 l 0,-22.03128 c 0,-0.26854 -0.02156,-0.53107 -0.03906,-0.79492 0.0175,-0.26451 0.03906,-0.52769 0.03906,-0.79688 l 0,-11.15039 4.1875,4.1875 c 2.30984,2.30984 5.31822,3.45675 8.30469,3.44727 3.48216,0.49955 7.17128,-0.60292 9.89258,-3.32422 l 4.06445,-4.06445 0,10.90429 c 0,0.26919 0.02341,0.53235 0.04101,0.79688 -0.0174,0.26386 -0.04101,0.52638 -0.04101,0.79492 l 0,22.03128 c 0,6.429 5.07953,11.6054 11.39062,11.6054 6.31108,0 11.392576,-5.1764 11.392576,-11.6054 l 0,-22.03128 c 0,-0.26854 -0.0216,-0.53107 -0.0391,-0.79492 0.0175,-0.26451 0.0391,-0.52769 0.0391,-0.79688 l 0,-16.28515 0,-5.7461 0,-16.28711 c 0,-0.0238 -0.004,-0.0466 -0.004,-0.0703 0.0615,-2.98317 -1.03049,-5.96603 -3.294926,-8.23047 -2.22538,-2.22537 -5.14487,-3.32387 -8.07617,-3.30273 -0.008,6e-5 -0.01564,-7e-5 -0.02343,0 -0.02081,2e-4 -0.0417,0.004 -0.0625,0.004 -2.32802,0.014 -4.48522,0.73038 -6.2793,1.95507 -0.09,0.0615 -0.17353,0.13133 -0.26172,0.19532 -0.54452,0.38513 -1.06983,0.81006 -1.55859,1.29882 l -15.57813,15.58008 c -0.27263,0.27263 -0.51665,0.56192 -0.75586,0.85352 l -8.61719,-8.61719 c -0.32828,-0.32828 -0.67485,-0.62665 -1.02929,-0.9082 l -6.91016,-6.91211 c -0.6542,-0.6542 -1.36919,-1.20334 -2.11914,-1.67188 -1.45784,-0.93109 -3.13377,-1.54165 -4.94141,-1.71875 -0.0598,-0.006 -0.11986,-0.006 -0.17968,-0.0117 -0.30694,-0.0275 -0.61438,-0.048 -0.92188,-0.0508 z m 147.306632,25.91211 a 16.6665,16.6665 0 0 1 16.66602,16.66602 16.6665,16.6665 0 0 1 -16.66602,16.66797 16.6665,16.6665 0 0 1 -16.66601,-16.66797 16.6665,16.6665 0 0 1 16.66601,-16.66602 z"
       id="path4233-0"
       inkscape:export-xdpi="13.5074"
       inkscape:export-ydpi="13.5074"
       inkscape:connector-curvature="0" />
    <path
       style="fill:#ff0000;stroke:#ff0000;stroke-width:1.083;stroke-linecap:round;stroke-linejoin:round;stroke-miterlimit:4;stroke-dasharray:none;stroke-opacity:1"
       d="m 239.02663,965.56869 c -0.33873,-0.88302 -2.71582,-5.11468 -5.28243,-9.40367 -15.06342,-25.172 -34.7693,-44.03202 -58.42848,-55.92051 -7.56838,-3.80303 -30.22266,-11.93439 -33.31433,-11.95759 -0.86527,-0.006 -2.07113,-0.9407 -2.67969,-2.07602 -1.31565,-2.45447 -2.21546,-23.10833 -1.31925,-30.28136 l 0.62746,-5.02207 11.64667,-3.85493 c 23.16073,-7.66595 40.39223,-17.64426 55.55754,-32.17192 12.72096,-12.18608 22.30225,-25.24949 30.65454,-41.79527 l 2.79748,-5.5418 7.7441,0.67899 c 40.29418,3.53292 74.97665,32.37498 86.42137,71.8683 13.28794,45.8539 -8.60237,95.64417 -51.34488,116.78576 -16.95285,8.38533 -41.31244,13.30027 -43.0801,8.69209 z m 15.59414,-56.73041 c 1.68662,-0.80036 3.77883,-2.54222 4.64936,-3.87081 2.03068,-3.09921 2.03068,-9.18458 0,-12.28379 -3.01126,-4.59578 -6.21993,-5.326 -23.40297,-5.326 l -15.68704,0 -0.005,-25 c -0.003,-13.95695 -0.41334,-26.46966 -0.92929,-28.32711 -1.18139,-4.25315 -4.87087,-7.94193 -8.65314,-8.65149 -4.11103,-0.77123 -9.24028,1.58228 -11.48986,5.27202 -1.76899,2.9015 -1.85152,4.54985 -1.85152,36.98181 0,32.41972 0.0831,34.08126 1.8495,36.97849 3.17795,5.21245 5.27828,5.60623 30.11508,5.64616 18.54827,0.0298 22.85872,-0.21099 25.40499,-1.41928 z m 36.23158,0.0635 c 4.74296,-2.45267 5.47494,-5.23692 5.47113,-20.81047 -0.004,-16.07021 -0.95515,-18.96052 -7.08264,-21.52076 -4.37932,-1.82979 -9.25892,-0.4934 -12.57108,3.4429 -2.32097,2.7583 -2.3612,3.05577 -2.3612,17.46018 0,16.09563 0.69086,18.88997 5.28676,21.38369 3.26567,1.77193 7.88122,1.79016 11.25703,0.0445 l 0,-3e-5 z m 3.19085,-51.31805 c 10.55133,-6.18304 10.97168,-22.01421 0.77583,-29.21879 -8.02947,-5.67376 -18.83346,-3.62278 -24.59504,4.66902 -4.93804,7.10658 -3.2661,18.55018 3.40417,23.29983 6.80484,4.84548 13.57218,5.25982 20.41504,1.24994 z"
       id="path4955"
       inkscape:connector-curvature="0" />
  </g>
</svg>
