<?xml version="1.0" encoding="UTF-8" standalone="no"?>
<!-- Created with Inkscape (http://www.inkscape.org/) -->

<svg
   xmlns:dc="http://purl.org/dc/elements/1.1/"
   xmlns:cc="http://creativecommons.org/ns#"
   xmlns:rdf="http://www.w3.org/1999/02/22-rdf-syntax-ns#"
   xmlns:svg="http://www.w3.org/2000/svg"
   xmlns="http://www.w3.org/2000/svg"
   xmlns:sodipodi="http://sodipodi.sourceforge.net/DTD/sodipodi-0.dtd"
   xmlns:inkscape="http://www.inkscape.org/namespaces/inkscape"
   width="210mm"
   height="297mm"
   viewBox="0 0 744.09448819 1052.3622047"
   id="svg2"
   version="1.1"
   inkscape:version="0.91 r13725"
   sodipodi:docname="HoliMoliLogo.svg">
  <defs
     id="defs4" />
  <sodipodi:namedview
     id="base"
     pagecolor="#00ff01"
     bordercolor="#666666"
     borderopacity="1.0"
     inkscape:pageopacity="0"
     inkscape:pageshadow="2"
     inkscape:zoom="1.37"
     inkscape:cx="181.66956"
     inkscape:cy="526.50684"
     inkscape:document-units="px"
     inkscape:current-layer="layer1"
     showgrid="false"
     showguides="true"
     inkscape:guide-bbox="true"
     inkscape:window-width="2560"
     inkscape:window-height="1377"
     inkscape:window-x="1912"
     inkscape:window-y="-8"
     inkscape:window-maximized="1"
     borderlayer="false"
     showborder="true"
     units="px"
     height="132px">
    <sodipodi:guide
       position="0,0"
       orientation="0,744.09449"
       id="guide4623" />
    <sodipodi:guide
       position="744.09449,0"
       orientation="-1052.3622,0"
       id="guide4625" />
    <sodipodi:guide
       position="744.09449,1052.3622"
       orientation="0,-744.09449"
       id="guide4627" />
    <sodipodi:guide
       position="0,1052.3622"
       orientation="1052.3622,0"
       id="guide4629" />
    <sodipodi:guide
       position="360.55046,348.62386"
       orientation="1,0"
       id="guide4801" />
    <sodipodi:guide
       position="530.27523,362.38533"
       orientation="0,1"
       id="guide4803" />
    <sodipodi:guide
       position="563.33334,621.48149"
       orientation="0,1"
       id="guide4198" />
    <sodipodi:guide
       position="525.18519,588.51853"
       orientation="0,1"
       id="guide4200" />
    <sodipodi:guide
       position="532.87672,472.60275"
       orientation="0,1"
       id="guide4217" />
    <sodipodi:guide
       position="526.0274,439.95435"
       orientation="0,1"
       id="guide4219" />
  </sodipodi:namedview>
  <metadata
     id="metadata7">
    <rdf:RDF>
      <cc:Work
         rdf:about="">
        <dc:format>image/svg+xml</dc:format>
        <dc:type
           rdf:resource="http://purl.org/dc/dcmitype/StillImage" />
        <dc:title></dc:title>
      </cc:Work>
    </rdf:RDF>
  </metadata>
  <g
     inkscape:label="Layer 1"
     inkscape:groupmode="layer"
     id="layer1">
    <path
       style="fill:#ffffff;stroke:#ffffff;stroke-opacity:1"
       d="m 362.07054,60.871943 a 66.666,66.666 0 0 0 -66.66602,66.666017 66.666,66.666 0 0 0 28.51758,54.63671 100,100 0 0 0 -1.73633,18.25391 100,100 0 0 0 2.32031,20.84766 66.666,66.666 0 0 0 -29.10156,54.99218 66.666,66.666 0 0 0 66.66602,66.66602 66.666,66.666 0 0 0 62.08789,-42.57617 100,100 0 0 0 98.02734,-99.92969 100,100 0 0 0 -99.28906,-99.97461 66.666,66.666 0 0 0 -60.82617,-39.582027 z m 0,49.999997 a 16.6665,16.6665 0 0 1 16.66601,16.66602 16.6665,16.6665 0 0 1 -16.66601,16.66601 16.6665,16.6665 0 0 1 -16.66602,-16.66601 16.6665,16.6665 0 0 1 16.66602,-16.66602 z m 107.63085,46.83203 a 17.820805,17.820805 0 0 1 17.82032,17.82227 17.820805,17.820805 0 0 1 -17.82032,17.82031 17.820805,17.820805 0 0 1 -17.82031,-17.82031 17.820805,17.820805 0 0 1 17.82031,-17.82227 z M 362.07054,259.60241 a 16.6665,16.6665 0 0 1 16.66601,16.66601 16.6665,16.6665 0 0 1 -16.66601,16.66797 16.6665,16.6665 0 0 1 -16.66602,-16.66797 16.6665,16.6665 0 0 1 16.66602,-16.66601 z"
       id="path4233"
       inkscape:connector-curvature="0" />
    <path
       style="fill:#ffffff;stroke:#ffffff;stroke-width:1.00890481;stroke-linecap:round;stroke-linejoin:round;stroke-miterlimit:4;stroke-dasharray:none;stroke-opacity:1"
       d="m 214.92991,84.541863 c -6.31109,0 -11.39062,5.17646 -11.39062,11.60547 l 0,22.031247 c 0,0.21904 0.0197,0.43246 0.0312,0.64844 -0.0116,0.21533 -0.0312,0.4281 -0.0312,0.64648 l 0,22.03125 0,17.42383 c 0,6.42901 5.07953,11.60547 11.39062,11.60547 6.31109,0 11.39258,-5.17646 11.39258,-11.60547 l 0,-20.91602 c 0.54396,0.0762 1.09604,0.12891 1.66211,0.12891 l 22.03125,0 c 0.84798,0 1.67143,-0.0938 2.4668,-0.26172 l 0,3.625 0,17.42383 c 0,6.42901 5.07953,11.60547 11.39062,11.60547 6.31109,0 11.39258,-5.17646 11.39258,-11.60547 l 0,-22.03125 0,-17.42383 c 0,-0.21838 -0.0197,-0.43115 -0.0312,-0.64648 0.0116,-0.21598 0.0312,-0.4294 0.0312,-0.64844 l 0,-22.031247 c 0,-6.42901 -5.08149,-11.60547 -11.39258,-11.60547 -6.31109,0 -11.39063,5.17646 -11.39062,11.60547 l 0,19.472657 c -0.79539,-0.16796 -1.61881,-0.26368 -2.4668,-0.26368 l -22.03125,0 c -0.56603,0 -1.11819,0.0528 -1.66211,0.12891 l 0,-19.337887 c 0,-6.42901 -5.08149,-11.60547 -11.39258,-11.60547 z"
       id="rect4441-7"
       inkscape:connector-curvature="0" />
    <rect
       style="fill:#000000;stroke:#000000;stroke-width:1.00890481;stroke-linecap:round;stroke-linejoin:round;stroke-miterlimit:4;stroke-dasharray:none;stroke-opacity:1"
       id="rect4441"
       width="22.783703"
       height="45.241089"
       x="458.74054"
       y="198.30505"
       ry="11.604704" />
    <path
       style="fill:#ffffff;stroke:#ffffff;stroke-width:1.00890481;stroke-linecap:round;stroke-linejoin:round;stroke-miterlimit:4;stroke-dasharray:none;stroke-opacity:1"
       d="m 214.76389,233.6903 c -2.93935,-0.0272 -5.8683,1.07143 -8.0996,3.30273 -2.23131,2.23131 -3.32994,5.16043 -3.30274,8.09961 3e-4,0.0319 0.005,0.0638 0.006,0.0957 -3.3e-4,0.0369 -0.006,0.0724 -0.006,0.10937 l 0,16.28711 0,5.74609 0,16.28516 c 0,0.26919 0.0215,0.53235 0.0391,0.79688 -0.0174,0.26386 -0.0391,0.52638 -0.0391,0.79492 l 0,22.03125 c 0,6.429 5.07954,11.60547 11.39063,11.60547 6.31108,0 11.39257,-5.17647 11.39257,-11.60547 l 0,-22.03125 c 0,-0.26854 -0.0216,-0.53107 -0.0391,-0.79492 0.0175,-0.26451 0.0391,-0.52769 0.0391,-0.79688 l 0,-11.15039 4.1875,4.1875 c 2.30984,2.30984 5.31822,3.45675 8.30469,3.44727 3.48216,0.49955 7.17128,-0.60292 9.89258,-3.32422 l 4.06445,-4.06446 0,10.9043 c 0,0.26919 0.0215,0.53235 0.0391,0.79688 -0.0174,0.26386 -0.0391,0.52638 -0.0391,0.79492 l 0,22.03125 c 0,6.429 5.07954,11.60547 11.39063,11.60547 6.31108,0 11.39258,-5.17647 11.39258,-11.60547 l 0,-22.03125 c 0,-0.26854 -0.0216,-0.53107 -0.0391,-0.79492 0.0175,-0.26451 0.0391,-0.52769 0.0391,-0.79688 l 0,-16.28516 0,-5.74609 0,-16.28711 c 0,-0.0238 -0.004,-0.0466 -0.004,-0.0703 0.0615,-2.98317 -1.03048,-5.96603 -3.29492,-8.23047 -2.22538,-2.22537 -5.14487,-3.32388 -8.07617,-3.30274 -0.008,6e-5 -0.0156,-7e-5 -0.0234,0 -0.0208,2e-4 -0.0417,0.004 -0.0625,0.004 -2.32801,0.014 -4.48522,0.73039 -6.2793,1.95508 -0.09,0.0615 -0.17353,0.13132 -0.26172,0.19531 -0.54452,0.38513 -1.06983,0.81007 -1.55859,1.29883 l -15.57813,15.58008 c -0.27263,0.27263 -0.51664,0.56191 -0.75585,0.85351 l -8.61719,-8.61718 c -0.32828,-0.32828 -0.67486,-0.62666 -1.0293,-0.90821 l -6.91016,-6.91211 c -0.6542,-0.6542 -1.36919,-1.20333 -2.11914,-1.67187 -1.45784,-0.93109 -3.13376,-1.54165 -4.9414,-1.71875 -0.0598,-0.006 -0.11987,-0.004 -0.17969,-0.01 -0.30694,-0.0275 -0.61438,-0.0499 -0.92188,-0.0527 z"
       id="rect4441-4-5"
       inkscape:connector-curvature="0" />
    <path
       style="fill:#000000;stroke:#000000;stroke-width:1.00890481;stroke-linecap:round;stroke-linejoin:round;stroke-miterlimit:4;stroke-dasharray:none;stroke-opacity:1"
       d="m 393.38633,157.85377 c -6.31109,0 -11.39258,5.17646 -11.39258,11.60547 l 0,22.03125 c 0,0.0403 0.005,0.079 0.006,0.11914 l 0,17.75781 0,3.50195 0,18.53125 c 0,0.007 -1e-5,0.013 0,0.0195 -5.1e-4,0.0441 -0.006,0.0867 -0.006,0.13086 0,2.15831 0.61604,4.16619 1.66992,5.88282 1.9956,3.34154 5.59244,5.57031 9.72852,5.57031 0.39853,0 0.79195,-0.0203 1.17969,-0.0606 l 16.73632,0 c 0.39555,0.0397 0.79851,0.0606 1.20508,0.0606 l 22.03125,0 c 6.429,0 11.60351,-5.07954 11.60351,-11.39063 0,-6.31108 -5.17451,-11.39257 -11.60351,-11.39257 l -17.71094,0 c -0.39555,-0.0397 -0.79656,-0.0605 -1.20313,-0.0605 l -10.84765,0 0,-7.29102 0,-3.50195 0,-18.53125 c 0,-0.0271 -0.004,-0.0531 -0.004,-0.0801 l 0,-21.29687 c 0,-6.42901 -5.08149,-11.60547 -11.39257,-11.60547 z"
       id="rect4441-2"
       inkscape:connector-curvature="0" />
    <path
       style="fill:#00ff00;fill-rule:evenodd;stroke:#00ff00;stroke-width:0.2;stroke-linecap:round;stroke-linejoin:round;stroke-miterlimit:4;stroke-dasharray:none;stroke-opacity:1"
       d="M 424.27132,99.961143 C 400.41705,152.6151 363.35183,172.91741 323.01743,183.73966 l -0.26111,-1.86633 c 43.59737,-11.29909 78.15134,-36.25814 99.89508,-83.173617 z"
       id="path4856"
       inkscape:connector-curvature="0"
       sodipodi:nodetypes="ccccc" />
    <path
       style="fill:#00ff00;fill-rule:evenodd;stroke:#00ff00;stroke-width:0.2;stroke-linecap:round;stroke-linejoin:round;stroke-miterlimit:4;stroke-dasharray:none;stroke-opacity:1"
       d="m 323.27618,220.06349 c 56.42006,12.57945 83.87483,44.70809 102.71871,81.97594 l -1.77346,0.63736 c -19.97808,-40.3643 -51.47746,-69.08224 -101.84866,-80.7696 z"
       id="path4856-4"
       inkscape:connector-curvature="0"
       sodipodi:nodetypes="ccccc" />
    <path
       style="fill:#ffffff;stroke:#ffffff;stroke-opacity:1"
       d="m 177.19084,728.08768 a 66.666,66.666 0 0 0 -66.66601,66.66602 66.666,66.666 0 0 0 27.9082,54.18359 c 43.12916,-11.31333 77.35933,-36.08002 99.02734,-82.36914 A 66.666,66.666 0 0 0 177.19084,728.08768 Z M 30.050228,751.7576 c -6.31109,0 -11.39063,5.17646 -11.39063,11.60547 l 0,22.03125 c 0,0.21904 0.01965,0.43246 0.03125,0.64844 -0.0116,0.21533 -0.03125,0.42811 -0.03125,0.64649 l 0,22.03125 0,17.42382 c 0,6.42901 5.07954,11.60547 11.39063,11.60547 6.31109,0 11.39258,-5.17646 11.39257,-11.60547 l 0,-20.91601 c 0.54396,0.0762 1.09604,0.1289 1.66211,0.1289 l 22.03125,0 c 0.84798,0 1.67143,-0.0938 2.4668,-0.26171 l 0,3.625 0,17.42382 c 0,6.42901 5.07954,11.60547 11.39063,11.60547 6.31109,0 11.392566,-5.17646 11.392566,-11.60547 l 0,-22.03125 0,-17.42382 c 0,-0.21838 -0.0178,-0.43116 -0.0293,-0.64649 0.0116,-0.21598 0.0293,-0.4294 0.0293,-0.64844 l 0,-22.03125 c 0,-6.42901 -5.081476,-11.60545 -11.392566,-11.60547 -6.31109,0 -11.39064,5.17646 -11.39063,11.60547 l 0,19.47266 c -0.79539,-0.16796 -1.61881,-0.26367 -2.4668,-0.26367 l -22.03125,0 c -0.56603,0 -1.11818,0.0528 -1.66211,0.1289 l 0,-19.33789 c 0,-6.42901 -5.08148,-11.60545 -11.39257,-11.60547 z M 239.14006,767.71268 C 215.4195,819.64964 178.77123,839.92482 138.8549,850.7576 a 100,100 0 0 0 -1.54882,16.88672 100,100 0 0 0 2.11132,19.87696 c 54.84349,12.53868 82.09674,43.69244 100.79883,79.98632 a 100,100 0 0 0 97.08985,-99.86328 100,100 0 0 0 -98.16602,-99.93164 z m -61.94922,10.375 a 16.6665,16.6665 0 0 1 16.66602,16.66602 16.6665,16.6665 0 0 1 -16.66602,16.66601 16.6665,16.6665 0 0 1 -16.66601,-16.66601 16.6665,16.6665 0 0 1 16.66601,-16.66602 z m 107.63086,46.83203 a 17.820805,17.820805 0 0 1 17.82031,17.82227 17.820805,17.820805 0 0 1 -17.82031,17.82031 17.820805,17.820805 0 0 1 -17.82031,-17.82031 17.820805,17.820805 0 0 1 17.82031,-17.82227 z m -76.31445,0.14844 c 6.31108,0 11.39258,5.17646 11.39258,11.60547 l 0,21.29688 c 0,0.027 0.004,0.053 0.004,0.0801 l 0,18.53125 0,3.50196 0,7.29101 10.84766,0 c 0.40657,0 0.80757,0.0208 1.20312,0.0606 l 17.71094,0 c 6.429,0 11.60352,5.0815 11.60352,11.39258 0,6.31109 -5.17452,11.39062 -11.60352,11.39062 l -22.03125,0 c -0.40657,0 -0.80953,-0.0208 -1.20508,-0.0605 l -16.73633,0 c -0.38773,0.0403 -0.78115,0.0605 -1.17968,0.0605 -4.13608,0 -7.73292,-2.22877 -9.72852,-5.57031 -1.05388,-1.71663 -1.66992,-3.7245 -1.66992,-5.88281 0,-0.0442 0.005,-0.0868 0.006,-0.13086 l 0,-0.0195 0,-18.53125 0,-3.50196 0,-17.75781 c -0.001,-0.0401 -0.006,-0.0788 -0.006,-0.11914 l 0,-22.03125 c 0,-6.42901 5.08149,-11.60547 11.39258,-11.60547 z m 76.74609,40.45117 c 6.31109,0 11.39258,5.17647 11.39258,11.60547 l 0,22.03125 c 0,6.42901 -5.08149,11.60547 -11.39258,11.60547 -6.31108,0 -11.39062,-5.17646 -11.39062,-11.60547 l 0,-22.03125 c 0,-6.429 5.07954,-11.60547 11.39062,-11.60547 z M 138.476,889.36307 a 66.666,66.666 0 0 0 -27.95117,54.1211 66.666,66.666 0 0 0 66.66601,66.66603 66.666,66.666 0 0 0 61.56641,-41.40822 C 218.88406,929.25036 187.78911,901.08165 138.476,889.36307 Z M 29.884208,900.90604 c -2.93935,-0.0272 -5.86831,1.07144 -8.09961,3.30274 -2.23131,2.23131 -3.32993,5.16043 -3.30273,8.09961 3e-4,0.0319 0.0068,0.0638 0.0078,0.0957 -3.3e-4,0.0369 -0.0078,0.0724 -0.0078,0.10937 l 0,16.28711 0,5.7461 0,16.28515 c 0,0.26919 0.02341,0.53235 0.04101,0.79688 -0.0174,0.26386 -0.04101,0.52638 -0.04101,0.79492 l 0,22.03128 c 0,6.429 5.07953,11.6054 11.39062,11.6054 6.31108,0 11.39258,-5.1764 11.39258,-11.6054 l 0,-22.03128 c 0,-0.26854 -0.02156,-0.53107 -0.03906,-0.79492 0.0175,-0.26451 0.03906,-0.52769 0.03906,-0.79688 l 0,-11.15039 4.1875,4.1875 c 2.30984,2.30984 5.31822,3.45675 8.30469,3.44727 3.48216,0.49955 7.17128,-0.60292 9.89258,-3.32422 l 4.06445,-4.06445 0,10.90429 c 0,0.26919 0.02341,0.53235 0.04101,0.79688 -0.0174,0.26386 -0.04101,0.52638 -0.04101,0.79492 l 0,22.03128 c 0,6.429 5.07953,11.6054 11.39062,11.6054 6.31108,0 11.392576,-5.1764 11.392576,-11.6054 l 0,-22.03128 c 0,-0.26854 -0.0216,-0.53107 -0.0391,-0.79492 0.0175,-0.26451 0.0391,-0.52769 0.0391,-0.79688 l 0,-16.28515 0,-5.7461 0,-16.28711 c 0,-0.0238 -0.004,-0.0466 -0.004,-0.0703 0.0615,-2.98317 -1.03049,-5.96603 -3.294926,-8.23047 -2.22538,-2.22537 -5.14487,-3.32387 -8.07617,-3.30273 -0.008,6e-5 -0.01564,-7e-5 -0.02343,0 -0.02081,2e-4 -0.0417,0.004 -0.0625,0.004 -2.32802,0.014 -4.48522,0.73038 -6.2793,1.95507 -0.09,0.0615 -0.17353,0.13133 -0.26172,0.19532 -0.54452,0.38513 -1.06983,0.81006 -1.55859,1.29882 l -15.57813,15.58008 c -0.27263,0.27263 -0.51665,0.56192 -0.75586,0.85352 l -8.61719,-8.61719 c -0.32828,-0.32828 -0.67485,-0.62665 -1.02929,-0.9082 l -6.91016,-6.91211 c -0.6542,-0.6542 -1.36919,-1.20334 -2.11914,-1.67188 -1.45784,-0.93109 -3.13377,-1.54165 -4.94141,-1.71875 -0.0598,-0.006 -0.11986,-0.006 -0.17968,-0.0117 -0.30694,-0.0275 -0.61438,-0.048 -0.92188,-0.0508 z m 147.306632,25.91211 a 16.6665,16.6665 0 0 1 16.66602,16.66602 16.6665,16.6665 0 0 1 -16.66602,16.66797 16.6665,16.6665 0 0 1 -16.66601,-16.66797 16.6665,16.6665 0 0 1 16.66601,-16.66602 z"
       id="path4233-0"
       inkscape:export-xdpi="13.5074"
       inkscape:export-ydpi="13.5074"
       inkscape:connector-curvature="0" />
    <path
       style="fill:#ff0000;stroke:#ff0000;stroke-width:1.083;stroke-linecap:round;stroke-linejoin:round;stroke-miterlimit:4;stroke-dasharray:none;stroke-opacity:1"
       d="m 239.02663,965.56869 c -0.33873,-0.88302 -2.71582,-5.11468 -5.28243,-9.40367 -15.06342,-25.172 -34.7693,-44.03202 -58.42848,-55.92051 -7.56838,-3.80303 -30.22266,-11.93439 -33.31433,-11.95759 -0.86527,-0.006 -2.07113,-0.9407 -2.67969,-2.07602 -1.31565,-2.45447 -2.21546,-23.10833 -1.31925,-30.28136 l 0.62746,-5.02207 11.64667,-3.85493 c 23.16073,-7.66595 40.39223,-17.64426 55.55754,-32.17192 12.72096,-12.18608 22.30225,-25.24949 30.65454,-41.79527 l 2.79748,-5.5418 7.7441,0.67899 c 40.29418,3.53292 74.97665,32.37498 86.42137,71.8683 13.28794,45.8539 -8.60237,95.64417 -51.34488,116.78576 -16.95285,8.38533 -41.31244,13.30027 -43.0801,8.69209 z m 15.59414,-56.73041 c 1.68662,-0.80036 3.77883,-2.54222 4.64936,-3.87081 2.03068,-3.09921 2.03068,-9.18458 0,-12.28379 -3.01126,-4.59578 -6.21993,-5.326 -23.40297,-5.326 l -15.68704,0 -0.005,-25 c -0.003,-13.95695 -0.41334,-26.46966 -0.92929,-28.32711 -1.18139,-4.25315 -4.87087,-7.94193 -8.65314,-8.65149 -4.11103,-0.77123 -9.24028,1.58228 -11.48986,5.27202 -1.76899,2.9015 -1.85152,4.54985 -1.85152,36.98181 0,32.41972 0.0831,34.08126 1.8495,36.97849 3.17795,5.21245 5.27828,5.60623 30.11508,5.64616 18.54827,0.0298 22.85872,-0.21099 25.40499,-1.41928 z m 36.23158,0.0635 c 4.74296,-2.45267 5.47494,-5.23692 5.47113,-20.81047 -0.004,-16.07021 -0.95515,-18.96052 -7.08264,-21.52076 -4.37932,-1.82979 -9.25892,-0.4934 -12.57108,3.4429 -2.32097,2.7583 -2.3612,3.05577 -2.3612,17.46018 0,16.09563 0.69086,18.88997 5.28676,21.38369 3.26567,1.77193 7.88122,1.79016 11.25703,0.0445 l 0,-3e-5 z m 3.19085,-51.31805 c 10.55133,-6.18304 10.97168,-22.01421 0.77583,-29.21879 -8.02947,-5.67376 -18.83346,-3.62278 -24.59504,4.66902 -4.93804,7.10658 -3.2661,18.55018 3.40417,23.29983 6.80484,4.84548 13.57218,5.25982 20.41504,1.24994 z"
       id="path4955"
       inkscape:connector-curvature="0" />
    <path
       style="fill:#ffffff;stroke:#ffffff;stroke-opacity:1"
       d="m 503.80171,380.80464 a 66.666,66.666 0 0 0 -66.66602,66.66602 66.666,66.666 0 0 0 28.51758,54.63671 100,100 0 0 0 -1.73633,18.25391 100,100 0 0 0 2.32031,20.84766 66.666,66.666 0 0 0 -29.10156,54.99218 66.666,66.666 0 0 0 66.66602,66.66602 66.666,66.666 0 0 0 62.08789,-42.57617 100,100 0 0 0 98.02734,-99.92969 100,100 0 0 0 -99.28906,-99.97461 66.666,66.666 0 0 0 -60.82617,-39.58203 z m 0,50 a 16.6665,16.6665 0 0 1 16.66601,16.66602 16.6665,16.6665 0 0 1 -16.66601,16.66601 16.6665,16.6665 0 0 1 -16.66602,-16.66601 16.6665,16.6665 0 0 1 16.66602,-16.66602 z m 107.63085,46.83203 a 17.820805,17.820805 0 0 1 17.82032,17.82227 17.820805,17.820805 0 0 1 -17.82032,17.82031 17.820805,17.820805 0 0 1 -17.82031,-17.82031 17.820805,17.820805 0 0 1 17.82031,-17.82227 z M 503.80171,579.53511 a 16.6665,16.6665 0 0 1 16.66601,16.66601 16.6665,16.6665 0 0 1 -16.66601,16.66797 16.6665,16.6665 0 0 1 -16.66602,-16.66797 16.6665,16.6665 0 0 1 16.66602,-16.66601 z"
       id="path4233-1"
       inkscape:connector-curvature="0" />
    <rect
       style="fill:#000000;stroke:#000000;stroke-width:0.70623338;stroke-linecap:round;stroke-linejoin:round;stroke-miterlimit:4;stroke-dasharray:none;stroke-opacity:1"
       id="rect4441-0"
       width="15.948592"
       height="31.668762"
       x="603.52814"
       y="517.80609"
       ry="8.1232929" />
    <path
       style="fill:#000000;stroke:#000000;stroke-width:0.70623338;stroke-linecap:round;stroke-linejoin:round;stroke-miterlimit:4;stroke-dasharray:none;stroke-opacity:1"
       d="m 557.47997,489.49026 c -4.41776,0 -7.97481,3.62352 -7.97481,8.12383 l 0,15.42187 c 0,0.0282 0.004,0.0553 0.004,0.0834 l 0,12.43047 0,2.45136 0,12.97188 c 0,0.005 0,0.009 0,0.0136 -3.5e-4,0.0309 -0.004,0.0607 -0.004,0.0916 0,1.51082 0.43123,2.91633 1.16895,4.11798 1.39692,2.33907 3.91471,3.89921 6.80996,3.89921 0.27897,0 0.55437,-0.0142 0.82579,-0.0424 l 11.71542,0 c 0.27688,0.0278 0.55896,0.0424 0.84356,0.0424 l 15.42187,0 c 4.5003,0 8.12246,-3.55568 8.12246,-7.97344 0,-4.41775 -3.62216,-7.9748 -8.12246,-7.9748 l -12.39766,0 c -0.27688,-0.0278 -0.55759,-0.0423 -0.84219,-0.0423 l -7.59335,0 0,-5.10371 0,-2.45137 0,-12.97187 c 0,-0.019 -0.003,-0.0372 -0.003,-0.0561 l 0,-14.90781 c 0,-4.50031 -3.55705,-8.12383 -7.9748,-8.12383 z"
       id="rect4441-2-9"
       inkscape:connector-curvature="0" />
    <path
       style="fill:#00ff00;fill-rule:evenodd;stroke:#00ff00;stroke-width:0.2;stroke-linecap:round;stroke-linejoin:round;stroke-miterlimit:4;stroke-dasharray:none;stroke-opacity:1"
       d="M 567.97167,419.97946 C 544.1174,472.63342 505.083,494.56244 464.7486,505.38469 l -1.71659,-4.86291 c 43.59737,-11.29909 78.66504,-36.34375 100.40878,-83.25923 z"
       id="path4856-3"
       inkscape:connector-curvature="0"
       sodipodi:nodetypes="ccccc" />
    <path
       style="fill:#00ff00;fill-rule:evenodd;stroke:#00ff00;stroke-width:0.2;stroke-linecap:round;stroke-linejoin:round;stroke-miterlimit:4;stroke-dasharray:none;stroke-opacity:1"
       d="m 465.34982,538.36912 c 56.42006,12.57945 85.2452,44.79399 104.08908,82.06184 l -4.25692,3.63415 C 545.2039,583.70081 513.78991,554.38356 463.41871,542.6962 Z"
       id="path4856-4-7"
       inkscape:connector-curvature="0"
       sodipodi:nodetypes="ccccc" />
    <path
       style="fill:#000000;stroke:#000000;stroke-width:0.37329477;stroke-linecap:round;stroke-linejoin:round;stroke-miterlimit:4;stroke-dasharray:none;stroke-opacity:1"
       d="m 461.06575,431.58561 c -2.33508,0 -4.2145,1.91528 -4.2145,4.294 l 0,8.15151 c 0,0.081 0.007,0.16001 0.0115,0.23992 -0.004,0.0797 -0.0115,0.15839 -0.0115,0.23919 l 0,8.15151 0,6.44678 c 0,2.37872 1.87942,4.294 4.2145,4.294 2.33509,0 4.21523,-1.91528 4.21523,-4.294 l 0,-7.73888 c 0.20127,0.0282 0.40553,0.0477 0.61498,0.0477 l 8.15151,0 c 0.31375,0 0.61843,-0.0347 0.91271,-0.0968 l 0,1.34124 0,6.44678 c 0,2.37872 1.87941,4.294 4.2145,4.294 2.33509,0 4.21523,-1.91528 4.21523,-4.294 l 0,-8.15151 0,-6.44678 c 0,-0.0808 -0.007,-0.15952 -0.0115,-0.23919 0.004,-0.0799 0.0115,-0.15888 0.0115,-0.23992 l 0,-8.15151 c 0,-2.37872 -1.88014,-4.294 -4.21523,-4.294 -2.33509,0 -4.2145,1.91528 -4.2145,4.294 l 0,7.20483 c -0.29429,-0.0621 -0.59896,-0.0976 -0.91271,-0.0976 l -8.15151,0 c -0.20943,0 -0.41373,0.0195 -0.61498,0.0477 l 0,-7.15497 c 0,-2.37872 -1.88014,-4.294 -4.21523,-4.294 z"
       id="rect4441-7-5"
       inkscape:connector-curvature="0" />
    <path
       style="fill:#000000;stroke:#000000;stroke-width:0.37329477;stroke-linecap:round;stroke-linejoin:round;stroke-miterlimit:4;stroke-dasharray:none;stroke-opacity:1"
       d="m 461.07029,580.39445 c -1.08756,-0.0101 -2.17127,0.39643 -2.99685,1.22201 -0.82559,0.82558 -1.23208,1.90936 -1.22201,2.99685 1.1e-4,0.0118 0.002,0.0236 0.002,0.0354 -1.3e-4,0.0137 -0.002,0.0268 -0.002,0.0405 l 0,6.02623 0,2.12605 0,6.02551 c 0,0.0996 0.008,0.19697 0.0145,0.29485 -0.006,0.0976 -0.0145,0.19476 -0.0145,0.29412 l 0,8.15156 c 0,2.37873 1.87943,4.29403 4.21453,4.29403 2.3351,0 4.21525,-1.9153 4.21525,-4.29403 l 0,-8.15156 c 0,-0.0994 -0.008,-0.1965 -0.0145,-0.29412 0.006,-0.0979 0.0145,-0.19525 0.0145,-0.29485 l 0,-4.12564 1.54937,1.54937 c 0.85465,0.85464 1.96775,1.279 3.07274,1.27549 1.2884,0.18484 2.65337,-0.22308 3.66025,-1.22996 l 1.50385,-1.50385 0,4.03459 c 0,0.0996 0.008,0.19697 0.0145,0.29485 -0.006,0.0976 -0.0145,0.19476 -0.0145,0.29412 l 0,8.15156 c 0,2.37873 1.87943,4.29403 4.21453,4.29403 2.3351,0 4.21526,-1.9153 4.21526,-4.29403 l 0,-8.15156 c 0,-0.0994 -0.008,-0.1965 -0.0145,-0.29412 0.006,-0.0979 0.0145,-0.19525 0.0145,-0.29485 l 0,-6.02551 0,-2.12605 0,-6.02623 c 0,-0.009 -10e-4,-0.0172 -10e-4,-0.026 0.0228,-1.10377 -0.38128,-2.20743 -1.21912,-3.04528 -0.82339,-0.82338 -1.9036,-1.22983 -2.98818,-1.22201 -0.003,2e-5 -0.006,-3e-5 -0.009,0 -0.008,7e-5 -0.0154,10e-4 -0.0231,10e-4 -0.86136,0.005 -1.65953,0.27025 -2.32334,0.72338 -0.0333,0.0228 -0.0642,0.0486 -0.0968,0.0723 -0.20147,0.14249 -0.39583,0.29972 -0.57667,0.48056 l -5.76391,5.76463 c -0.10087,0.10087 -0.19116,0.20791 -0.27967,0.3158 l -3.18836,-3.18836 c -0.12146,-0.12146 -0.24969,-0.23186 -0.38084,-0.33603 l -2.55676,-2.55748 c -0.24205,-0.24206 -0.5066,-0.44524 -0.78408,-0.6186 -0.5394,-0.3445 -1.15949,-0.57041 -1.82832,-0.63593 -0.0221,-0.002 -0.0444,-10e-4 -0.0665,-0.004 -0.11357,-0.0102 -0.22732,-0.0185 -0.3411,-0.0195 z"
       id="rect4441-4-5-8"
       inkscape:connector-curvature="0" />
    <path
       inkscape:export-filename="C:\Users\100603024\Desktop\holimoli_132.png"
       inkscape:export-xdpi="41.969536"
       inkscape:export-ydpi="41.969536"
       style="fill:#ffffff;stroke:#ffffff;stroke-opacity:1"
       d="M 174.13672 380.92383 A 66.666 66.666 0 0 0 107.4707 447.58984 A 66.666 66.666 0 0 0 133.72656 500.54297 C 177.03057 489.23206 211.88672 464.30614 233.58398 417.78125 A 66.666 66.666 0 0 0 174.13672 380.92383 z M 238.05859 420.62695 C 214.27632 472.68779 175.58358 494.5435 135.55469 505.37305 A 100 100 0 0 0 134.25195 520.48047 A 100 100 0 0 0 136.08398 538.58398 C 192.0475 551.18476 220.77792 583.15633 239.58008 620.17578 A 100 100 0 0 0 334.25195 520.48047 A 100 100 0 0 0 238.05859 420.62695 z M 174.13672 430.92383 A 16.6665 16.6665 0 0 1 190.80273 447.58984 A 16.6665 16.6665 0 0 1 174.13672 464.25586 A 16.6665 16.6665 0 0 1 157.4707 447.58984 A 16.6665 16.6665 0 0 1 174.13672 430.92383 z M 123.18164 431.50391 C 125.51673 431.50391 127.39648 433.41816 127.39648 435.79688 L 127.39648 442.95312 C 127.59773 442.92494 127.80229 442.9043 128.01172 442.9043 L 136.16406 442.9043 C 136.47781 442.9043 136.78188 442.93985 137.07617 443.00195 L 137.07617 435.79688 C 137.07617 433.41816 138.95593 431.50391 141.29102 431.50391 C 143.62611 431.50391 145.50586 433.41816 145.50586 435.79688 L 145.50586 443.94922 C 145.50586 444.03026 145.49814 444.10955 145.49414 444.18945 C 145.49864 444.26912 145.50586 444.34693 145.50586 444.42773 L 145.50586 450.875 L 145.50586 459.02734 C 145.50586 461.40606 143.62611 463.32031 141.29102 463.32031 C 138.95593 463.32031 137.07617 461.40606 137.07617 459.02734 L 137.07617 452.58008 L 137.07617 451.23828 C 136.78189 451.30038 136.47781 451.33594 136.16406 451.33594 L 128.01172 451.33594 C 127.80227 451.33594 127.59775 451.31531 127.39648 451.28711 L 127.39648 459.02734 C 127.39648 461.40606 125.51673 463.32031 123.18164 463.32031 C 120.84656 463.32031 118.9668 461.40606 118.9668 459.02734 L 118.9668 452.58008 L 118.9668 444.42773 C 118.9668 444.34693 118.97452 444.26915 118.97852 444.18945 C 118.97402 444.10954 118.9668 444.03022 118.9668 443.94922 L 118.9668 435.79688 C 118.9668 433.41816 120.84656 431.50391 123.18164 431.50391 z M 281.76758 477.75586 A 17.820805 17.820805 0 0 1 299.58789 495.57812 A 17.820805 17.820805 0 0 1 281.76758 513.39844 A 17.820805 17.820805 0 0 1 263.94727 495.57812 A 17.820805 17.820805 0 0 1 281.76758 477.75586 z M 227.81445 493.20898 C 232.2322 493.20898 235.78906 496.83172 235.78906 501.33203 L 235.78906 516.24023 C 235.78906 516.25913 235.79102 516.27787 235.79102 516.29688 L 235.79102 529.26758 L 235.79102 531.71875 L 235.79102 536.82227 L 243.38477 536.82227 C 243.66937 536.82227 243.94968 536.83743 244.22656 536.86523 L 256.625 536.86523 C 261.1253 536.86523 264.74805 540.42209 264.74805 544.83984 C 264.74805 549.2576 261.1253 552.81445 256.625 552.81445 L 241.20312 552.81445 C 240.91852 552.81445 240.63626 552.79928 240.35938 552.77148 L 228.64453 552.77148 C 228.37311 552.79968 228.09733 552.81445 227.81836 552.81445 C 224.92311 552.81445 222.40473 551.25313 221.00781 548.91406 C 220.27009 547.71241 219.83984 546.30768 219.83984 544.79688 C 219.83984 544.76598 219.8434 544.73598 219.84375 544.70508 L 219.84375 544.69141 L 219.84375 531.71875 L 219.84375 529.26758 L 219.84375 516.83789 C 219.84375 516.80979 219.83984 516.78211 219.83984 516.75391 L 219.83984 501.33203 C 219.83984 496.83172 223.39669 493.20898 227.81445 493.20898 z M 281.83594 521.52344 C 286.2537 521.52344 289.81055 525.14813 289.81055 529.64844 L 289.81055 545.07031 C 289.81055 549.57062 286.2537 553.19336 281.83594 553.19336 C 277.41818 553.19336 273.86328 549.57062 273.86328 545.07031 L 273.86328 529.64844 C 273.86328 525.14813 277.41818 521.52344 281.83594 521.52344 z M 134.40234 542.97266 A 66.666 66.666 0 0 0 107.4707 596.32031 A 66.666 66.666 0 0 0 174.13672 662.98633 A 66.666 66.666 0 0 0 234.99609 623.16211 C 215.08208 583.5026 183.9639 554.6608 134.40234 542.97266 z M 174.13672 579.6543 A 16.6665 16.6665 0 0 1 190.80273 596.32031 A 16.6665 16.6665 0 0 1 174.13672 612.98828 A 16.6665 16.6665 0 0 1 157.4707 596.32031 A 16.6665 16.6665 0 0 1 174.13672 579.6543 z M 123.1875 580.51172 C 123.30128 580.51272 123.41377 580.52105 123.52734 580.53125 C 123.54944 580.53425 123.57165 580.53316 123.59375 580.53516 C 124.26258 580.60068 124.88245 580.82737 125.42188 581.17188 C 125.69934 581.34524 125.96498 581.547 126.20703 581.78906 L 128.76367 584.34766 C 128.89482 584.45183 129.02307 584.56213 129.14453 584.68359 L 132.33203 587.87109 C 132.42054 587.7632 132.51241 587.65751 132.61328 587.55664 L 138.37695 581.79102 C 138.55779 581.61018 138.75165 581.45304 138.95312 581.31055 C 138.98572 581.28685 139.01553 581.26108 139.04883 581.23828 C 139.71264 580.78515 140.51169 580.52063 141.37305 580.51562 C 141.38075 580.51562 141.38848 580.51374 141.39648 580.51367 C 141.39948 580.51364 141.4013 580.51369 141.4043 580.51367 C 142.48888 580.50585 143.56919 580.91295 144.39258 581.73633 C 145.23042 582.57418 145.63608 583.67748 145.61328 584.78125 L 145.61328 584.80664 L 145.61328 590.83398 L 145.61328 592.95898 L 145.61328 598.98438 C 145.61328 599.08398 145.60561 599.1814 145.59961 599.2793 C 145.60611 599.37692 145.61328 599.47482 145.61328 599.57422 L 145.61328 607.72656 C 145.61328 610.10529 143.73354 612.01953 141.39844 612.01953 C 139.06334 612.01953 137.18359 610.10529 137.18359 607.72656 L 137.18359 599.57422 C 137.18359 599.47486 137.19127 599.3769 137.19727 599.2793 C 137.19077 599.18142 137.18359 599.08396 137.18359 598.98438 L 137.18359 594.95117 L 135.67969 596.45508 C 134.67281 597.46196 133.30793 597.86843 132.01953 597.68359 C 130.91454 597.6871 129.80192 597.26284 128.94727 596.4082 L 127.39844 594.85938 L 127.39844 598.98438 C 127.39844 599.08397 127.38881 599.1814 127.38281 599.2793 C 127.38931 599.37692 127.39844 599.47482 127.39844 599.57422 L 127.39844 607.72656 C 127.39844 610.10529 125.51674 612.01953 123.18164 612.01953 C 120.84654 612.01953 118.9668 610.10529 118.9668 607.72656 L 118.9668 599.57422 C 118.9668 599.47486 118.97642 599.3769 118.98242 599.2793 C 118.97592 599.18142 118.9668 599.08396 118.9668 598.98438 L 118.9668 592.95898 L 118.9668 590.83398 L 118.9668 584.80664 C 118.9668 584.79294 118.96862 584.78128 118.96875 584.76758 C 118.96875 584.75578 118.96691 584.74422 118.9668 584.73242 C 118.95673 583.64493 119.36386 582.55993 120.18945 581.73438 C 121.01503 580.9088 122.09994 580.50357 123.1875 580.51367 L 123.1875 580.51172 z "
       id="path4233-1-5" />
  </g>
</svg>
