<?xml version="1.0" encoding="UTF-8" standalone="no"?>
<!-- Created with Inkscape (http://www.inkscape.org/) -->
<svg id="svg2" xmlns:rdf="http://www.w3.org/1999/02/22-rdf-syntax-ns#" xmlns="http://www.w3.org/2000/svg" height="79.887mm" width="64.285mm" version="1.1" xmlns:cc="http://creativecommons.org/ns#" xmlns:dc="http://purl.org/dc/elements/1.1/" viewBox="0 0 227.78124 283.0625">
 <metadata id="metadata7">
  <rdf:RDF>
   <cc:Work rdf:about="">
    <dc:format>image/svg+xml</dc:format>
    <dc:type rdf:resource="http://purl.org/dc/dcmitype/StillImage"/>
    <dc:title/>
   </cc:Work>
  </rdf:RDF>
 </metadata>
 <g id="layer1" transform="translate(-106.97 -380.42)">
  <path id="path4233" d="m359.15 105.4a66.666 66.666 0 0 0 -66.666 66.666 66.666 66.666 0 0 0 28.518 54.637 100 100 0 0 0 -1.7363 18.254 100 100 0 0 0 2.3203 20.848 66.666 66.666 0 0 0 -29.102 54.992 66.666 66.666 0 0 0 66.666 66.666 66.666 66.666 0 0 0 62.088 -42.576 100 100 0 0 0 98.027 -99.93 100 100 0 0 0 -99.289 -99.975 66.666 66.666 0 0 0 -60.826 -39.582zm0 50a16.666 16.666 0 0 1 16.666 16.666 16.666 16.666 0 0 1 -16.666 16.666 16.666 16.666 0 0 1 -16.666 -16.666 16.666 16.666 0 0 1 16.666 -16.666zm107.63 46.832a17.821 17.821 0 0 1 17.82 17.822 17.821 17.821 0 0 1 -17.82 17.82 17.821 17.821 0 0 1 -17.82 -17.82 17.821 17.821 0 0 1 17.82 -17.822zm-107.63 101.9a16.666 16.666 0 0 1 16.666 16.666 16.666 16.666 0 0 1 -16.666 16.668 16.666 16.666 0 0 1 -16.666 -16.668 16.666 16.666 0 0 1 16.666 -16.666z" stroke="#fff" fill="#fff"/>
  <g stroke-linejoin="round" stroke-linecap="round">
   <g stroke-width="1.0089">
    <path id="rect4441-7" d="m212.01 129.07c-6.3111 0-11.391 5.1765-11.391 11.605v22.031c0 0.21904 0.0197 0.43246 0.0312 0.64844-0.0116 0.21533-0.0312 0.4281-0.0312 0.64648v22.031 17.424c0 6.429 5.0795 11.605 11.391 11.605 6.3111 0 11.393-5.1765 11.393-11.605v-20.916c0.54396 0.0762 1.096 0.12891 1.6621 0.12891h22.031c0.84798 0 1.6714-0.0938 2.4668-0.26172v3.625 17.424c0 6.429 5.0795 11.605 11.391 11.605 6.3111 0 11.393-5.1765 11.393-11.605v-22.031-17.424c0-0.21838-0.0197-0.43115-0.0312-0.64648 0.0116-0.21598 0.0312-0.4294 0.0312-0.64844v-22.031c0-6.429-5.0815-11.605-11.393-11.605-6.3111 0-11.391 5.1765-11.391 11.605v19.473c-0.79539-0.16796-1.6188-0.26368-2.4668-0.26368h-22.031c-0.56603 0-1.1182 0.0528-1.6621 0.12891v-19.338c0-6.429-5.0815-11.605-11.393-11.605z" stroke="#fff" fill="#fff"/>
    <rect id="rect4441" ry="11.605" height="45.241" width="22.784" stroke="#000" y="242.83" x="455.82"/>
    <path id="rect4441-4-5" d="m211.84 278.22c-2.9394-0.0272-5.8683 1.0714-8.0996 3.3027s-3.3299 5.1604-3.3027 8.0996c0.0003 0.0319 0.005 0.0638 0.006 0.0957-0.00033 0.0369-0.006 0.0724-0.006 0.10937v16.287 5.7461 16.285c0 0.26919 0.0215 0.53235 0.0391 0.79688-0.0174 0.26386-0.0391 0.52638-0.0391 0.79492v22.031c0 6.429 5.0795 11.605 11.391 11.605 6.3111 0 11.393-5.1765 11.393-11.605v-22.031c0-0.26854-0.0216-0.53107-0.0391-0.79492 0.0175-0.26451 0.0391-0.52769 0.0391-0.79688v-11.15l4.1875 4.1875c2.3098 2.3098 5.3182 3.4568 8.3047 3.4473 3.4822 0.49955 7.1713-0.60292 9.8926-3.3242l4.0644-4.0645v10.904c0 0.26919 0.0215 0.53235 0.0391 0.79688-0.0174 0.26386-0.0391 0.52638-0.0391 0.79492v22.031c0 6.429 5.0795 11.605 11.391 11.605 6.3111 0 11.393-5.1765 11.393-11.605v-22.031c0-0.26854-0.0216-0.53107-0.0391-0.79492 0.0175-0.26451 0.0391-0.52769 0.0391-0.79688v-16.285-5.7461-16.287c0-0.0238-0.004-0.0466-0.004-0.0703 0.0615-2.9832-1.0305-5.966-3.2949-8.2305-2.2254-2.2254-5.1449-3.3239-8.0762-3.3027-0.008 0.00006-0.0156-0.00007-0.0234 0-0.0208 0.0002-0.0417 0.004-0.0625 0.004-2.328 0.014-4.4852 0.73039-6.2793 1.9551-0.09 0.0615-0.17353 0.13132-0.26172 0.19531-0.54452 0.38513-1.0698 0.81007-1.5586 1.2988l-15.578 15.58c-0.27263 0.27263-0.51664 0.56191-0.75585 0.85351l-8.6172-8.6172c-0.32828-0.32828-0.67486-0.62666-1.0293-0.90821l-6.9102-6.9121c-0.6542-0.6542-1.3692-1.2033-2.1191-1.6719-1.4578-0.93109-3.1338-1.5416-4.9414-1.7188-0.0598-0.006-0.11987-0.004-0.17969-0.01-0.30694-0.0275-0.61438-0.0499-0.92188-0.0527z" stroke="#fff" fill="#fff"/>
    <path id="rect4441-2" d="m390.47 202.38c-6.3111 0-11.393 5.1765-11.393 11.605v22.031c0 0.0403 0.005 0.079 0.006 0.11914v17.758 3.502 18.531c0 0.007-0.00001 0.013 0 0.0195-0.00051 0.0441-0.006 0.0867-0.006 0.13086 0 2.1583 0.61604 4.1662 1.6699 5.8828 1.9956 3.3415 5.5924 5.5703 9.7285 5.5703 0.39853 0 0.79195-0.0203 1.1797-0.0606h16.736c0.39555 0.0397 0.79851 0.0606 1.2051 0.0606h22.031c6.429 0 11.604-5.0795 11.604-11.391 0-6.3111-5.1745-11.393-11.604-11.393h-17.711c-0.39555-0.0397-0.79656-0.0605-1.2031-0.0605h-10.848v-7.291-3.502-18.531c0-0.0271-0.004-0.0531-0.004-0.0801v-21.297c0-6.429-5.0815-11.605-11.393-11.605z" stroke="#000"/>
   </g>
   <path id="path4856" d="m421.35 144.49c-23.854 52.654-60.919 72.956-101.25 83.779l-0.26111-1.8663c43.597-11.299 78.151-36.258 99.895-83.174z" fill-rule="evenodd" stroke="#0f0" stroke-width=".2" fill="#0f0"/>
   <path id="path4856-4" d="m320.36 264.59c56.42 12.579 83.875 44.708 102.72 81.976l-1.7735 0.63736c-19.978-40.364-51.477-69.082-101.85-80.77z" fill-rule="evenodd" stroke="#0f0" stroke-width=".2" fill="#0f0"/>
  </g>
  <path id="path4233-0" d="m177.19 728.09a66.666 66.666 0 0 0 -66.666 66.666 66.666 66.666 0 0 0 27.908 54.184c43.129-11.313 77.359-36.08 99.027-82.369a66.666 66.666 0 0 0 -60.27 -38.48zm-147.14 23.67c-6.3111 0-11.391 5.1765-11.391 11.605v22.031c0 0.21904 0.01965 0.43246 0.03125 0.64844-0.0116 0.21533-0.03125 0.42811-0.03125 0.64649v22.031 17.424c0 6.429 5.0795 11.605 11.391 11.605 6.3111 0 11.393-5.1765 11.393-11.605v-20.916c0.54396 0.0762 1.096 0.1289 1.6621 0.1289h22.031c0.84798 0 1.6714-0.0938 2.4668-0.26171v3.625 17.424c0 6.429 5.0795 11.605 11.391 11.605 6.3111 0 11.393-5.1765 11.393-11.605v-22.031-17.424c0-0.21838-0.0178-0.43116-0.0293-0.64649 0.0116-0.21598 0.0293-0.4294 0.0293-0.64844v-22.031c0-6.429-5.0815-11.605-11.393-11.605-6.3111 0-11.391 5.1765-11.391 11.605v19.473c-0.79539-0.16796-1.6188-0.26367-2.4668-0.26367h-22.031c-0.56603 0-1.1182 0.0528-1.6621 0.1289v-19.338c0-6.429-5.0815-11.605-11.393-11.605zm209.09 15.95c-23.72 51.94-60.37 72.21-100.29 83.05a100 100 0 0 0 -1.5488 16.887 100 100 0 0 0 2.1113 19.877c54.843 12.539 82.097 43.692 100.8 79.986a100 100 0 0 0 97.09 -99.863 100 100 0 0 0 -98.166 -99.932zm-61.949 10.375a16.666 16.666 0 0 1 16.666 16.666 16.666 16.666 0 0 1 -16.666 16.666 16.666 16.666 0 0 1 -16.666 -16.666 16.666 16.666 0 0 1 16.666 -16.666zm107.63 46.832a17.821 17.821 0 0 1 17.82 17.822 17.821 17.821 0 0 1 -17.82 17.82 17.821 17.821 0 0 1 -17.82 -17.82 17.821 17.821 0 0 1 17.82 -17.822zm-76.314 0.14844c6.3111 0 11.393 5.1765 11.393 11.605v21.297c0 0.027 0.004 0.053 0.004 0.0801v18.531 3.502 7.291h10.848c0.40657 0 0.80757 0.0208 1.2031 0.0606h17.711c6.429 0 11.604 5.0815 11.604 11.393 0 6.3111-5.1745 11.391-11.604 11.391h-22.031c-0.40657 0-0.80953-0.0208-1.2051-0.0605h-16.736c-0.38773 0.0403-0.78115 0.0605-1.1797 0.0605-4.1361 0-7.7329-2.2288-9.7285-5.5703-1.0539-1.7166-1.6699-3.7245-1.6699-5.8828 0-0.0442 0.005-0.0868 0.006-0.13086v-0.0195-18.531-3.502-17.758c-0.001-0.0401-0.006-0.0788-0.006-0.11914v-22.031c0-6.429 5.0815-11.605 11.393-11.605zm76.746 40.451c6.3111 0 11.393 5.1765 11.393 11.605v22.031c0 6.429-5.0815 11.605-11.393 11.605-6.3111 0-11.391-5.1765-11.391-11.605v-22.031c0-6.429 5.0795-11.605 11.391-11.605zm-146.78 23.85a66.666 66.666 0 0 0 -27.951 54.121 66.666 66.666 0 0 0 66.666 66.666 66.666 66.666 0 0 0 61.566 -41.408c-19.88-39.49-50.97-67.66-100.28-79.38zm-108.6 11.55c-2.9394-0.0272-5.8683 1.0714-8.0996 3.3027s-3.3299 5.1604-3.3027 8.0996c0.0003 0.0319 0.0068 0.0638 0.0078 0.0957-0.00033 0.0369-0.0078 0.0724-0.0078 0.10937v16.287 5.7461 16.285c0 0.26919 0.02341 0.53235 0.04101 0.79688-0.0174 0.26386-0.04101 0.52638-0.04101 0.79492v22.031c0 6.429 5.0795 11.605 11.391 11.605 6.3111 0 11.393-5.1764 11.393-11.605v-22.031c0-0.26854-0.02156-0.53107-0.03906-0.79492 0.0175-0.26451 0.03906-0.52769 0.03906-0.79688v-11.15l4.1875 4.1875c2.3098 2.3098 5.3182 3.4568 8.3047 3.4473 3.4822 0.49955 7.1713-0.60292 9.8926-3.3242l4.0644-4.0644v10.904c0 0.26919 0.02341 0.53235 0.04101 0.79688-0.0174 0.26386-0.04101 0.52638-0.04101 0.79492v22.031c0 6.429 5.0795 11.605 11.391 11.605 6.3111 0 11.393-5.1764 11.393-11.605v-22.031c0-0.26854-0.0216-0.53107-0.0391-0.79492 0.0175-0.26451 0.0391-0.52769 0.0391-0.79688v-16.285-5.7461-16.287c0-0.0238-0.004-0.0466-0.004-0.0703 0.0615-2.9832-1.0305-5.966-3.2949-8.2305-2.2254-2.2254-5.1449-3.3239-8.0762-3.3027-0.008 0.00006-0.01564-0.00007-0.02343 0-0.02081 0.0002-0.0417 0.004-0.0625 0.004-2.328 0.014-4.4852 0.73038-6.2793 1.9551-0.09 0.0615-0.17353 0.13133-0.26172 0.19532-0.54452 0.38513-1.0698 0.81006-1.5586 1.2988l-15.578 15.58c-0.27263 0.27263-0.51665 0.56192-0.75586 0.85352l-8.6172-8.6172c-0.32828-0.32828-0.67485-0.62665-1.0293-0.9082l-6.9102-6.9121c-0.6542-0.6542-1.3692-1.2033-2.1191-1.6719-1.4578-0.93109-3.1338-1.5416-4.9414-1.7188-0.0598-0.006-0.11986-0.006-0.17968-0.0117-0.30694-0.0275-0.61438-0.048-0.92188-0.0508zm147.31 25.912a16.666 16.666 0 0 1 16.666 16.666 16.666 16.666 0 0 1 -16.666 16.668 16.666 16.666 0 0 1 -16.666 -16.668 16.666 16.666 0 0 1 16.666 -16.666z" stroke="#fff" fill="#fff"/>
  <path id="path4955" stroke-linejoin="round" d="m239.03 965.57c-0.33873-0.88302-2.7158-5.1147-5.2824-9.4037-15.063-25.172-34.769-44.032-58.428-55.921-7.5684-3.803-30.223-11.934-33.314-11.958-0.86527-0.006-2.0711-0.9407-2.6797-2.076-1.3156-2.4545-2.2155-23.108-1.3192-30.281l0.62746-5.0221 11.647-3.8549c23.161-7.666 40.392-17.644 55.558-32.172 12.721-12.186 22.302-25.249 30.655-41.795l2.7975-5.5418 7.7441 0.67899c40.294 3.5329 74.977 32.375 86.421 71.868 13.288 45.854-8.6024 95.644-51.345 116.79-16.953 8.3853-41.312 13.3-43.08 8.6921zm15.594-56.73c1.6866-0.80036 3.7788-2.5422 4.6494-3.8708 2.0307-3.0992 2.0307-9.1846 0-12.284-3.0113-4.5958-6.2199-5.326-23.403-5.326h-15.687l-0.005-25c-0.003-13.957-0.41334-26.47-0.92929-28.327-1.1814-4.2532-4.8709-7.9419-8.6531-8.6515-4.111-0.77123-9.2403 1.5823-11.49 5.272-1.769 2.9015-1.8515 4.5498-1.8515 36.982 0 32.42 0.0831 34.081 1.8495 36.978 3.178 5.2124 5.2783 5.6062 30.115 5.6462 18.548 0.0298 22.859-0.21099 25.405-1.4193zm36.232 0.0635c4.743-2.4527 5.4749-5.2369 5.4711-20.81-0.004-16.07-0.95515-18.961-7.0826-21.521-4.3793-1.8298-9.2589-0.4934-12.571 3.4429-2.321 2.7583-2.3612 3.0558-2.3612 17.46 0 16.096 0.69086 18.89 5.2868 21.384 3.2657 1.7719 7.8812 1.7902 11.257 0.0445v-0.00003zm3.1908-51.318c10.551-6.183 10.972-22.014 0.77583-29.219-8.0295-5.6738-18.833-3.6228-24.595 4.669-4.938 7.1066-3.2661 18.55 3.4042 23.3 6.8048 4.8455 13.572 5.2598 20.415 1.2499z" stroke="#f00" stroke-linecap="round" stroke-width="1.083" fill="#f00"/>
  <path id="path4233-1" d="m503.8 380.8a66.666 66.666 0 0 0 -66.666 66.666 66.666 66.666 0 0 0 28.518 54.637 100 100 0 0 0 -1.7363 18.254 100 100 0 0 0 2.3203 20.848 66.666 66.666 0 0 0 -29.102 54.992 66.666 66.666 0 0 0 66.666 66.666 66.666 66.666 0 0 0 62.088 -42.576 100 100 0 0 0 98.027 -99.93 100 100 0 0 0 -99.289 -99.975 66.666 66.666 0 0 0 -60.826 -39.582zm0 50a16.666 16.666 0 0 1 16.666 16.666 16.666 16.666 0 0 1 -16.666 16.666 16.666 16.666 0 0 1 -16.666 -16.666 16.666 16.666 0 0 1 16.666 -16.666zm107.63 46.832a17.821 17.821 0 0 1 17.82 17.822 17.821 17.821 0 0 1 -17.82 17.82 17.821 17.821 0 0 1 -17.82 -17.82 17.821 17.821 0 0 1 17.82 -17.822zm-107.63 101.91a16.666 16.666 0 0 1 16.666 16.666 16.666 16.666 0 0 1 -16.666 16.668 16.666 16.666 0 0 1 -16.666 -16.668 16.666 16.666 0 0 1 16.666 -16.666z" stroke="#fff" fill="#fff"/>
  <g stroke-linejoin="round" stroke-linecap="round">
   <rect id="rect4441-0" ry="8.1233" height="31.669" width="15.949" stroke="#000" y="517.81" x="603.53" stroke-width=".70623"/>
   <path id="rect4441-2-9" d="m557.48 489.49c-4.4178 0-7.9748 3.6235-7.9748 8.1238v15.422c0 0.0282 0.004 0.0553 0.004 0.0834v12.43 2.4514 12.972 0.0136c-0.00035 0.0309-0.004 0.0607-0.004 0.0916 0 1.5108 0.43123 2.9163 1.169 4.118 1.3969 2.3391 3.9147 3.8992 6.81 3.8992 0.27897 0 0.55437-0.0142 0.82579-0.0424h11.715c0.27688 0.0278 0.55896 0.0424 0.84356 0.0424h15.422c4.5003 0 8.1225-3.5557 8.1225-7.9734 0-4.4178-3.6222-7.9748-8.1225-7.9748h-12.398c-0.27688-0.0278-0.55759-0.0423-0.84219-0.0423h-7.5934v-5.1037-2.4514-12.972c0-0.019-0.003-0.0372-0.003-0.0561v-14.908c0-4.5003-3.557-8.1238-7.9748-8.1238z" stroke="#000" stroke-width=".70623"/>
   <path id="path4856-3" d="m567.97 419.98c-23.85 52.65-62.89 74.58-103.22 85.4l-1.7166-4.8629c43.597-11.299 78.665-36.344 100.41-83.259z" fill-rule="evenodd" stroke="#0f0" stroke-width=".2" fill="#0f0"/>
   <path id="path4856-4-7" d="m465.35 538.37c56.42 12.579 85.245 44.794 104.09 82.062l-4.2569 3.6342c-19.98-40.36-51.39-69.68-101.76-81.36z" fill-rule="evenodd" stroke="#0f0" stroke-width=".2" fill="#0f0"/>
   <path id="rect4441-7-5" d="m461.07 431.59c-2.3351 0-4.2145 1.9153-4.2145 4.294v8.1515c0 0.081 0.007 0.16001 0.0115 0.23992-0.004 0.0797-0.0115 0.15839-0.0115 0.23919v8.1515 6.4468c0 2.3787 1.8794 4.294 4.2145 4.294s4.2152-1.9153 4.2152-4.294v-7.7389c0.20127 0.0282 0.40553 0.0477 0.61498 0.0477h8.1515c0.31375 0 0.61843-0.0347 0.91271-0.0968v1.3412 6.4468c0 2.3787 1.8794 4.294 4.2145 4.294s4.2152-1.9153 4.2152-4.294v-8.1515-6.4468c0-0.0808-0.007-0.15952-0.0115-0.23919 0.004-0.0799 0.0115-0.15888 0.0115-0.23992v-8.1515c0-2.3787-1.8801-4.294-4.2152-4.294s-4.2145 1.9153-4.2145 4.294v7.2048c-0.29429-0.0621-0.59896-0.0976-0.91271-0.0976h-8.1515c-0.20943 0-0.41373 0.0195-0.61498 0.0477v-7.155c0-2.3787-1.8801-4.294-4.2152-4.294z" stroke="#000" stroke-width=".37329"/>
   <path id="rect4441-4-5-8" d="m461.07 580.39c-1.0876-0.0101-2.1713 0.39643-2.9968 1.222-0.82559 0.82558-1.2321 1.9094-1.222 2.9968 0.00011 0.0118 0.002 0.0236 0.002 0.0354-0.00013 0.0137-0.002 0.0268-0.002 0.0405v6.0262 2.126 6.0255c0 0.0996 0.008 0.19697 0.0145 0.29485-0.006 0.0976-0.0145 0.19476-0.0145 0.29412v8.1516c0 2.3787 1.8794 4.294 4.2145 4.294s4.2152-1.9153 4.2152-4.294v-8.1516c0-0.0994-0.008-0.1965-0.0145-0.29412 0.006-0.0979 0.0145-0.19525 0.0145-0.29485v-4.1256l1.5494 1.5494c0.85465 0.85464 1.9678 1.279 3.0727 1.2755 1.2884 0.18484 2.6534-0.22308 3.6602-1.23l1.5038-1.5038v4.0346c0 0.0996 0.008 0.19697 0.0145 0.29485-0.006 0.0976-0.0145 0.19476-0.0145 0.29412v8.1516c0 2.3787 1.8794 4.294 4.2145 4.294s4.2153-1.9153 4.2153-4.294v-8.1516c0-0.0994-0.008-0.1965-0.0145-0.29412 0.006-0.0979 0.0145-0.19525 0.0145-0.29485v-6.0255-2.126-6.0262c0-0.009-0.001-0.0172-0.001-0.026 0.0228-1.1038-0.38128-2.2074-1.2191-3.0453-0.82339-0.82338-1.9036-1.2298-2.9882-1.222-0.003 0.00002-0.006-0.00003-0.009 0-0.008 0.00007-0.0154 0.001-0.0231 0.001-0.86136 0.005-1.6595 0.27025-2.3233 0.72338-0.0333 0.0228-0.0642 0.0486-0.0968 0.0723-0.20147 0.14249-0.39583 0.29972-0.57667 0.48056l-5.7639 5.7646c-0.10087 0.10087-0.19116 0.20791-0.27967 0.3158l-3.1884-3.1884c-0.12146-0.12146-0.24969-0.23186-0.38084-0.33603l-2.5568-2.5575c-0.24205-0.24206-0.5066-0.44524-0.78408-0.6186-0.5394-0.3445-1.1595-0.57041-1.8283-0.63593-0.0221-0.002-0.0444-0.001-0.0665-0.004-0.11357-0.0102-0.22732-0.0185-0.3411-0.0195z" stroke="#000" stroke-width=".37329"/>
  </g>
  <path id="path4233-1-5" d="m174.14 380.92a66.666 66.666 0 0 0 -66.666 66.666 66.666 66.666 0 0 0 26.256 52.953c43.304-11.311 78.16-36.237 99.857-82.762a66.666 66.666 0 0 0 -59.447 -36.857zm63.922 39.703c-23.782 52.061-62.475 73.917-102.5 84.746a100 100 0 0 0 -1.3027 15.107 100 100 0 0 0 1.832 18.104c55.964 12.601 84.694 44.572 103.5 81.592a100 100 0 0 0 94.672 -99.695 100 100 0 0 0 -96.193 -99.854zm-63.922 10.297a16.666 16.666 0 0 1 16.666 16.666 16.666 16.666 0 0 1 -16.666 16.666 16.666 16.666 0 0 1 -16.666 -16.666 16.666 16.666 0 0 1 16.666 -16.666zm-50.955 0.58008c2.3351 0 4.2148 1.9142 4.2148 4.293v7.1562c0.20125-0.0282 0.40581-0.0488 0.61524-0.0488h8.1523c0.31375 0 0.61782 0.0356 0.91211 0.0977v-7.2051c0-2.3787 1.8798-4.293 4.2148-4.293 2.3351 0 4.2148 1.9142 4.2148 4.293v8.1523c0 0.081-0.008 0.16033-0.0117 0.24023 0.005 0.0797 0.0117 0.15748 0.0117 0.23828v6.4473 8.1523c0 2.3787-1.8798 4.293-4.2148 4.293-2.3351 0-4.2148-1.9142-4.2148-4.293v-6.4473-1.3418c-0.29428 0.0621-0.59836 0.0977-0.91211 0.0977h-8.1523c-0.20945 0-0.41397-0.0206-0.61524-0.0488v7.7402c0 2.3787-1.8798 4.293-4.2148 4.293-2.3351 0-4.2148-1.9142-4.2148-4.293v-6.4473-8.1524c0-0.0808 0.008-0.15858 0.0117-0.23828-0.005-0.0799-0.0117-0.15923-0.0117-0.24023v-8.1523c0-2.3787 1.8798-4.293 4.2148-4.293zm158.59 46.252a17.821 17.821 0 0 1 17.82 17.822 17.821 17.821 0 0 1 -17.82 17.82 17.821 17.821 0 0 1 -17.82 -17.82 17.821 17.821 0 0 1 17.82 -17.822zm-53.953 15.453c4.4178 0 7.9746 3.6227 7.9746 8.123v14.908c0 0.0189 0.002 0.0376 0.002 0.0566v12.971 2.4512 5.1035h7.5938c0.2846 0 0.56491 0.0152 0.84179 0.043h12.398c4.5003 0 8.123 3.5569 8.123 7.9746 0 4.4178-3.6228 7.9746-8.123 7.9746h-15.422c-0.2846 0-0.56686-0.0152-0.84374-0.043h-11.715c-0.27142 0.0282-0.5472 0.043-0.82617 0.043-2.8952 0-5.4136-1.5613-6.8106-3.9004-0.73772-1.2016-1.168-2.6064-1.168-4.1172 0-0.0309 0.004-0.0609 0.004-0.0918v-0.0137-12.973-2.4512-12.43c0-0.0281-0.004-0.0558-0.004-0.084v-15.422c0-4.5003 3.5568-8.123 7.9746-8.123zm54.021 28.314c4.4178 0 7.9746 3.6247 7.9746 8.125v15.422c0 4.5003-3.5568 8.123-7.9746 8.123s-7.9727-3.6227-7.9727-8.123v-15.422c0-4.5003 3.5549-8.125 7.9727-8.125zm-147.43 21.449a66.666 66.666 0 0 0 -26.932 53.348 66.666 66.666 0 0 0 66.666 66.666 66.666 66.666 0 0 0 60.859 -39.824c-19.92-39.65-51.04-68.49-100.6-80.18zm39.734 36.682a16.666 16.666 0 0 1 16.666 16.666 16.666 16.666 0 0 1 -16.666 16.668 16.666 16.666 0 0 1 -16.666 -16.668 16.666 16.666 0 0 1 16.666 -16.666zm-50.949 0.85742c0.11378 0.001 0.22627 0.009 0.33984 0.0195 0.0221 0.003 0.0443 0.002 0.0664 0.004 0.66883 0.0655 1.2887 0.29221 1.8281 0.63672 0.27746 0.17336 0.5431 0.37512 0.78515 0.61718l2.5566 2.5586c0.13115 0.10417 0.2594 0.21447 0.38086 0.33593l3.1875 3.1875c0.0885-0.10789 0.18038-0.21358 0.28125-0.31445l5.7637-5.7656c0.18084-0.18084 0.3747-0.33798 0.57617-0.48047 0.0326-0.0237 0.0624-0.0495 0.0957-0.0723 0.66381-0.45313 1.4629-0.71765 2.3242-0.72266 0.008 0 0.0154-0.002 0.0234-0.002 0.003-0.00003 0.005 0.00002 0.008 0 1.0846-0.008 2.1649 0.39928 2.9883 1.2227 0.83784 0.83785 1.2435 1.9412 1.2207 3.0449v0.0254 6.0273 2.125 6.0254c0 0.0996-0.008 0.19702-0.0137 0.29492 0.006 0.0976 0.0137 0.19552 0.0137 0.29492v8.1523c0 2.3787-1.8797 4.293-4.2148 4.293s-4.2148-1.9142-4.2148-4.293v-8.1523c0-0.0994 0.008-0.19732 0.0137-0.29492-0.007-0.0979-0.0137-0.19534-0.0137-0.29492v-4.0332l-1.5039 1.5039c-1.0069 1.0069-2.3718 1.4134-3.6602 1.2285-1.105 0.004-2.2176-0.42075-3.0723-1.2754l-1.5488-1.5488v4.125c0 0.0996-0.01 0.19702-0.0156 0.29492 0.006 0.0976 0.0156 0.19552 0.0156 0.29492v8.1523c0 2.3787-1.8817 4.293-4.2168 4.293s-4.2148-1.9142-4.2148-4.293v-8.1523c0-0.0994 0.01-0.19732 0.0156-0.29492-0.007-0.0979-0.0156-0.19534-0.0156-0.29492v-6.0254-2.125-6.0273c0-0.0137 0.002-0.0254 0.002-0.0391 0-0.0118-0.002-0.0234-0.002-0.0352-0.0101-1.0875 0.39706-2.1725 1.2226-2.998 0.82558-0.82558 1.9105-1.2308 2.998-1.2207v-0.002z" stroke="#fff" fill="#fff"/>
 </g>
</svg>
